<svg xmlns="http://www.w3.org/2000/svg" viewBox="0 0 480 88" role="img" aria-label="DC Groceries light logo">
  <title>DC Groceries Light Logo</title>
  <g transform="translate(4 4) scale(0.8)">
    <path
      fill-rule="evenodd"
      clip-rule="evenodd"
      fill="#18332C"
      d="M8 10h26c16 0 22 8 22 22v26c0 14-6 22-22 22H8V10zm22 16c5-4 12 0 12 7s-6 11-12 9c-6-2-6-10 0-16z"
    />
    <path
      fill="#386641"
      d="M58 16c22-4 34 10 34 28s-12 36-34 34c-5-1-9-4-11-8l9-9c9 7 20 2 22-8 2-10-5-20-16-22-3-1-6 0-8 2l-6-7z"
    />
    <path fill="#F28C28" d="M72 58c8 4 6 14-2 16-6 2-12-2-12-8 0-4 6-10 14-8z" opacity="0.85" />
  </g>
  <g transform="translate(100 22)">
    <path
      fill="#18332C"
      d="M0 36V8h14.2c9.8 0 16.4 5.6 16.4 14 0 5.8-3.2 10.4-8.4 12.4l9.6 11.6H18.8L10.4 36.8H8.4V44H0zm8.4-8.4h5.4c4.4 0 7-2.4 7-6s-2.6-6-7-6H8.4v12zM38.8 36V8h8.4v28h16.8V8h8.4v36H38.8zM82 36.8c-10.4 0-17.6-7.2-17.6-17.2S71.6 2.4 82 2.4s17.6 7.2 17.6 17.2-7.2 17.2-17.6 17.2zm0-7.6c5.6 0 9.2-4 9.2-9.6S87.6 10 82 10s-9.2 4-9.2 9.6 3.6 9.6 9.2 9.6zM108.4 36V8h14.2c9.8 0 16.4 5.6 16.4 14 0 5.8-3.2 10.4-8.4 12.4l9.6 11.6h-12.8l-8.4-10H116.8V44h-8.4V36zm8.4-8.4h5.4c4.4 0 7-2.4 7-6s-2.6-6-7-6h-5.4v12zM147.2 36V8h14.2c9.8 0 16.4 5.6 16.4 14 0 5.8-3.2 10.4-8.4 12.4l9.6 11.6h-12.8l-8.4-10h-2V44h-8.4V36zm8.4-8.4h5.4c4.4 0 7-2.4 7-6s-2.6-6-7-6h-5.4v12zM186.8 36V8h8.4l18.4 22.4V8h8.4v36h-8.4L195.2 21.6V36h-8.4zM232.4 36V8h8.4v28h16.8V8h8.4v36h-33.6zM272 36.8c-10.4 0-17.6-7.2-17.6-17.2S261.6 2.4 272 2.4s17.6 7.2 17.6 17.2-7.2 17.2-17.6 17.2zm0-7.6c5.6 0 9.2-4 9.2-9.6s-3.6-9.6-9.2-9.6-9.2 4-9.2 9.6 3.6 9.6 9.2 9.6zM298.4 36V8h8.4v28h16.8V8h8.4v36h-33.6zM338 36.8c-10.4 0-17.6-7.2-17.6-17.2S327.6 2.4 338 2.4s17.6 7.2 17.6 17.2-7.2 17.2-17.6 17.2zm0-7.6c5.6 0 9.2-4 9.2-9.6s-3.6-9.6-9.2-9.6-9.2 4-9.2 9.6 3.6 9.6 9.2 9.6zM364.4 36V8h14.2c9.8 0 16.4 5.6 16.4 14 0 5.8-3.2 10.4-8.4 12.4l9.6 11.6h-12.8l-8.4-10h-2V44h-8.4V36zm8.4-8.4h5.4c4.4 0 7-2.4 7-6s-2.6-6-7-6h-5.4v12z"
    />
  </g>
</svg>
