<svg xmlns="http://www.w3.org/2000/svg" viewBox="0 0 1200 630" role="img" aria-label="DC Groceries brand">
  <title>DC Groceries Open Graph Brand</title>
  <rect width="1200" height="630" fill="#18332C" />
  <rect x="0" y="0" width="1200" height="630" fill="url(#og-gradient)" />
  <defs>
    <linearGradient id="og-gradient" x1="0" y1="0" x2="1" y2="1">
      <stop offset="0%" stop-color="#18332C" />
      <stop offset="55%" stop-color="#1f4238" />
      <stop offset="100%" stop-color="#386641" />
    </linearGradient>
    <pattern id="og-dots" width="24" height="24" patternUnits="userSpaceOnUse">
      <circle cx="2" cy="2" r="1.5" fill="#F8F2E7" opacity="0.08" />
    </pattern>
  </defs>
  <rect width="1200" height="630" fill="url(#og-dots)" />
  <circle cx="1040" cy="120" r="180" fill="#F28C28" opacity="0.12" />
  <circle cx="140" cy="520" r="220" fill="#F8F2E7" opacity="0.06" />
  <g transform="translate(420 155) scale(2.2)">
    <path
      fill-rule="evenodd"
      clip-rule="evenodd"
      fill="#F8F2E7"
      d="M8 10h26c16 0 22 8 22 22v26c0 14-6 22-22 22H8V10zm22 16c5-4 12 0 12 7s-6 11-12 9c-6-2-6-10 0-16z"
    />
    <path
      fill="#FFFFFF"
      d="M58 16c22-4 34 10 34 28s-12 36-34 34c-5-1-9-4-11-8l9-9c9 7 20 2 22-8 2-10-5-20-16-22-3-1-6 0-8 2l-6-7z"
    />
    <path fill="#F28C28" d="M72 58c8 4 6 14-2 16-6 2-12-2-12-8 0-4 6-10 14-8z" opacity="0.9" />
  </g>
  <text
    x="600"
    y="360"
    text-anchor="middle"
    fill="#F8F2E7"
    font-family="system-ui, -apple-system, sans-serif"
    font-size="52"
    font-weight="700"
    letter-spacing="6"
  >
    GROCERIES
  </text>
  <text
    x="600"
    y="430"
    text-anchor="middle"
    fill="#F8F2E7"
    font-family="system-ui, -apple-system, sans-serif"
    font-size="28"
    font-weight="500"
    opacity="0.9"
  >
    From produce to pantry, shop with clarity.
  </text>
  <rect x="440" y="460" width="320" height="4" rx="2" fill="#F28C28" opacity="0.8" />
</svg>
